<mxfile host="app.diagrams.net" modified="2024-05-07T03:09:05.479Z" agent="Mozilla/5.0 (Windows NT 10.0; Win64; x64) AppleWebKit/537.36 (KHTML, like Gecko) Chrome/124.0.0.0 Safari/537.36" etag="zRWqFyUZeWUcb2WYz3PK" version="24.3.1" type="device">
  <diagram name="Página-1" id="SN4aHOJAe1Na2w7o_OJ6">
    <mxGraphModel dx="4100" dy="1166" grid="1" gridSize="10" guides="1" tooltips="1" connect="1" arrows="1" fold="1" page="1" pageScale="1" pageWidth="2000" pageHeight="2000" math="0" shadow="0">
      <root>
        <mxCell id="0" />
        <mxCell id="1" parent="0" />
        <mxCell id="J3YQ_y_66WrA-NiRAN0j-13" style="edgeStyle=orthogonalEdgeStyle;rounded=0;orthogonalLoop=1;jettySize=auto;html=1;" edge="1" parent="1" source="J3YQ_y_66WrA-NiRAN0j-1" target="J3YQ_y_66WrA-NiRAN0j-3">
          <mxGeometry relative="1" as="geometry" />
        </mxCell>
        <mxCell id="J3YQ_y_66WrA-NiRAN0j-14" style="edgeStyle=orthogonalEdgeStyle;rounded=0;orthogonalLoop=1;jettySize=auto;html=1;entryX=0.5;entryY=0;entryDx=0;entryDy=0;" edge="1" parent="1" source="J3YQ_y_66WrA-NiRAN0j-1" target="J3YQ_y_66WrA-NiRAN0j-4">
          <mxGeometry relative="1" as="geometry" />
        </mxCell>
        <mxCell id="J3YQ_y_66WrA-NiRAN0j-15" style="edgeStyle=orthogonalEdgeStyle;rounded=0;orthogonalLoop=1;jettySize=auto;html=1;entryX=0.5;entryY=0;entryDx=0;entryDy=0;" edge="1" parent="1" source="J3YQ_y_66WrA-NiRAN0j-1" target="J3YQ_y_66WrA-NiRAN0j-2">
          <mxGeometry relative="1" as="geometry" />
        </mxCell>
        <mxCell id="J3YQ_y_66WrA-NiRAN0j-1" value="PROYECTO" style="rounded=0;whiteSpace=wrap;html=1;" vertex="1" parent="1">
          <mxGeometry x="480" y="70" width="120" height="60" as="geometry" />
        </mxCell>
        <mxCell id="J3YQ_y_66WrA-NiRAN0j-16" style="edgeStyle=orthogonalEdgeStyle;rounded=0;orthogonalLoop=1;jettySize=auto;html=1;entryX=0.5;entryY=0;entryDx=0;entryDy=0;" edge="1" parent="1" source="J3YQ_y_66WrA-NiRAN0j-2" target="J3YQ_y_66WrA-NiRAN0j-6">
          <mxGeometry relative="1" as="geometry" />
        </mxCell>
        <mxCell id="J3YQ_y_66WrA-NiRAN0j-17" style="edgeStyle=orthogonalEdgeStyle;rounded=0;orthogonalLoop=1;jettySize=auto;html=1;entryX=0.5;entryY=0;entryDx=0;entryDy=0;" edge="1" parent="1" source="J3YQ_y_66WrA-NiRAN0j-2" target="J3YQ_y_66WrA-NiRAN0j-5">
          <mxGeometry relative="1" as="geometry" />
        </mxCell>
        <mxCell id="J3YQ_y_66WrA-NiRAN0j-18" style="edgeStyle=orthogonalEdgeStyle;rounded=0;orthogonalLoop=1;jettySize=auto;html=1;" edge="1" parent="1" source="J3YQ_y_66WrA-NiRAN0j-2" target="J3YQ_y_66WrA-NiRAN0j-8">
          <mxGeometry relative="1" as="geometry" />
        </mxCell>
        <mxCell id="J3YQ_y_66WrA-NiRAN0j-2" value="DISEÑO" style="rounded=0;whiteSpace=wrap;html=1;" vertex="1" parent="1">
          <mxGeometry x="100" y="200" width="120" height="60" as="geometry" />
        </mxCell>
        <mxCell id="J3YQ_y_66WrA-NiRAN0j-3" value="REQUERIMIENTOS" style="rounded=0;whiteSpace=wrap;html=1;" vertex="1" parent="1">
          <mxGeometry x="480" y="200" width="120" height="60" as="geometry" />
        </mxCell>
        <mxCell id="J3YQ_y_66WrA-NiRAN0j-11" style="edgeStyle=orthogonalEdgeStyle;rounded=0;orthogonalLoop=1;jettySize=auto;html=1;" edge="1" parent="1" source="J3YQ_y_66WrA-NiRAN0j-4" target="J3YQ_y_66WrA-NiRAN0j-9">
          <mxGeometry relative="1" as="geometry" />
        </mxCell>
        <mxCell id="J3YQ_y_66WrA-NiRAN0j-12" style="edgeStyle=orthogonalEdgeStyle;rounded=0;orthogonalLoop=1;jettySize=auto;html=1;entryX=0.5;entryY=0;entryDx=0;entryDy=0;" edge="1" parent="1" source="J3YQ_y_66WrA-NiRAN0j-4" target="J3YQ_y_66WrA-NiRAN0j-10">
          <mxGeometry relative="1" as="geometry" />
        </mxCell>
        <mxCell id="J3YQ_y_66WrA-NiRAN0j-4" value="CASOS DE&amp;nbsp;&lt;div&gt;PRUEBA&lt;/div&gt;" style="rounded=0;whiteSpace=wrap;html=1;" vertex="1" parent="1">
          <mxGeometry x="780" y="200" width="120" height="60" as="geometry" />
        </mxCell>
        <mxCell id="J3YQ_y_66WrA-NiRAN0j-5" value="INTERFAZ&lt;div&gt;(frontend)&lt;/div&gt;" style="rounded=0;whiteSpace=wrap;html=1;" vertex="1" parent="1">
          <mxGeometry x="-50" y="320" width="120" height="60" as="geometry" />
        </mxCell>
        <mxCell id="J3YQ_y_66WrA-NiRAN0j-6" value="MODULO&lt;div&gt;(backend)&lt;/div&gt;" style="rounded=0;whiteSpace=wrap;html=1;" vertex="1" parent="1">
          <mxGeometry x="100" y="320" width="120" height="60" as="geometry" />
        </mxCell>
        <mxCell id="J3YQ_y_66WrA-NiRAN0j-8" value="ARQUITECTURA" style="rounded=0;whiteSpace=wrap;html=1;" vertex="1" parent="1">
          <mxGeometry x="250" y="320" width="120" height="60" as="geometry" />
        </mxCell>
        <mxCell id="J3YQ_y_66WrA-NiRAN0j-9" value="PLAN DE PRUEBA" style="rounded=0;whiteSpace=wrap;html=1;" vertex="1" parent="1">
          <mxGeometry x="700" y="320" width="120" height="60" as="geometry" />
        </mxCell>
        <mxCell id="J3YQ_y_66WrA-NiRAN0j-10" value="EJECUCION PLAN&lt;div&gt;DE PRUEBA&lt;/div&gt;" style="rounded=0;whiteSpace=wrap;html=1;" vertex="1" parent="1">
          <mxGeometry x="860" y="320" width="120" height="60" as="geometry" />
        </mxCell>
        <mxCell id="J3YQ_y_66WrA-NiRAN0j-22" value="" style="shape=table;startSize=0;container=1;collapsible=0;childLayout=tableLayout;" vertex="1" parent="1">
          <mxGeometry x="-320" y="450" width="620" height="520" as="geometry" />
        </mxCell>
        <mxCell id="J3YQ_y_66WrA-NiRAN0j-23" value="" style="shape=tableRow;horizontal=0;startSize=0;swimlaneHead=0;swimlaneBody=0;strokeColor=inherit;top=0;left=0;bottom=0;right=0;collapsible=0;dropTarget=0;fillColor=none;points=[[0,0.5],[1,0.5]];portConstraint=eastwest;" vertex="1" parent="J3YQ_y_66WrA-NiRAN0j-22">
          <mxGeometry width="620" height="65" as="geometry" />
        </mxCell>
        <mxCell id="J3YQ_y_66WrA-NiRAN0j-24" value="&lt;font style=&quot;font-size: 20px;&quot;&gt;PAQUETES DE TRABAJOS&lt;/font&gt;" style="shape=partialRectangle;html=1;whiteSpace=wrap;connectable=0;strokeColor=inherit;overflow=hidden;fillColor=none;top=0;left=0;bottom=0;right=0;pointerEvents=1;" vertex="1" parent="J3YQ_y_66WrA-NiRAN0j-23">
          <mxGeometry width="287" height="65" as="geometry">
            <mxRectangle width="287" height="65" as="alternateBounds" />
          </mxGeometry>
        </mxCell>
        <mxCell id="J3YQ_y_66WrA-NiRAN0j-25" value="&lt;font style=&quot;font-size: 20px;&quot;&gt;ENTREGABLE&lt;/font&gt;" style="shape=partialRectangle;html=1;whiteSpace=wrap;connectable=0;strokeColor=inherit;overflow=hidden;fillColor=none;top=0;left=0;bottom=0;right=0;pointerEvents=1;" vertex="1" parent="J3YQ_y_66WrA-NiRAN0j-23">
          <mxGeometry x="287" width="333" height="65" as="geometry">
            <mxRectangle width="333" height="65" as="alternateBounds" />
          </mxGeometry>
        </mxCell>
        <mxCell id="J3YQ_y_66WrA-NiRAN0j-26" value="" style="shape=tableRow;horizontal=0;startSize=0;swimlaneHead=0;swimlaneBody=0;strokeColor=inherit;top=0;left=0;bottom=0;right=0;collapsible=0;dropTarget=0;fillColor=none;points=[[0,0.5],[1,0.5]];portConstraint=eastwest;" vertex="1" parent="J3YQ_y_66WrA-NiRAN0j-22">
          <mxGeometry y="65" width="620" height="63" as="geometry" />
        </mxCell>
        <mxCell id="J3YQ_y_66WrA-NiRAN0j-27" value="&lt;span style=&quot;font-size: 22px;&quot;&gt;INTERFAZ&lt;/span&gt;" style="shape=partialRectangle;html=1;whiteSpace=wrap;connectable=0;strokeColor=inherit;overflow=hidden;fillColor=none;top=0;left=0;bottom=0;right=0;pointerEvents=1;" vertex="1" parent="J3YQ_y_66WrA-NiRAN0j-26">
          <mxGeometry width="287" height="63" as="geometry">
            <mxRectangle width="287" height="63" as="alternateBounds" />
          </mxGeometry>
        </mxCell>
        <mxCell id="J3YQ_y_66WrA-NiRAN0j-28" value="&lt;font style=&quot;font-size: 21px;&quot;&gt;&amp;nbsp;Codigo fuente desarrollado para la interfaz&lt;/font&gt;&lt;div style=&quot;font-size: 21px;&quot;&gt;&lt;font style=&quot;font-size: 21px;&quot;&gt;&lt;br style=&quot;font-size: 21px;&quot;&gt;&lt;/font&gt;&lt;/div&gt;" style="shape=partialRectangle;html=1;whiteSpace=wrap;connectable=0;strokeColor=inherit;overflow=hidden;fillColor=none;top=0;left=0;bottom=0;right=0;pointerEvents=1;fontSize=21;align=center;verticalAlign=middle;" vertex="1" parent="J3YQ_y_66WrA-NiRAN0j-26">
          <mxGeometry x="287" width="333" height="63" as="geometry">
            <mxRectangle width="333" height="63" as="alternateBounds" />
          </mxGeometry>
        </mxCell>
        <mxCell id="J3YQ_y_66WrA-NiRAN0j-29" value="" style="shape=tableRow;horizontal=0;startSize=0;swimlaneHead=0;swimlaneBody=0;strokeColor=inherit;top=0;left=0;bottom=0;right=0;collapsible=0;dropTarget=0;fillColor=none;points=[[0,0.5],[1,0.5]];portConstraint=eastwest;" vertex="1" parent="J3YQ_y_66WrA-NiRAN0j-22">
          <mxGeometry y="128" width="620" height="65" as="geometry" />
        </mxCell>
        <mxCell id="J3YQ_y_66WrA-NiRAN0j-30" value="&lt;span style=&quot;font-size: 22px;&quot;&gt;MODULO(frontend)&lt;/span&gt;" style="shape=partialRectangle;html=1;whiteSpace=wrap;connectable=0;strokeColor=inherit;overflow=hidden;fillColor=none;top=0;left=0;bottom=0;right=0;pointerEvents=1;" vertex="1" parent="J3YQ_y_66WrA-NiRAN0j-29">
          <mxGeometry width="287" height="65" as="geometry">
            <mxRectangle width="287" height="65" as="alternateBounds" />
          </mxGeometry>
        </mxCell>
        <mxCell id="J3YQ_y_66WrA-NiRAN0j-31" value="&lt;div style=&quot;font-size: 21px;&quot;&gt;Codigo fuente desarrollado para el modulo&lt;/div&gt;&lt;div style=&quot;font-size: 21px;&quot;&gt;&lt;br style=&quot;font-size: 21px;&quot;&gt;&lt;/div&gt;" style="shape=partialRectangle;html=1;whiteSpace=wrap;connectable=0;strokeColor=inherit;overflow=hidden;fillColor=none;top=0;left=0;bottom=0;right=0;pointerEvents=1;fontSize=21;align=center;verticalAlign=middle;" vertex="1" parent="J3YQ_y_66WrA-NiRAN0j-29">
          <mxGeometry x="287" width="333" height="65" as="geometry">
            <mxRectangle width="333" height="65" as="alternateBounds" />
          </mxGeometry>
        </mxCell>
        <mxCell id="J3YQ_y_66WrA-NiRAN0j-32" value="" style="shape=tableRow;horizontal=0;startSize=0;swimlaneHead=0;swimlaneBody=0;strokeColor=inherit;top=0;left=0;bottom=0;right=0;collapsible=0;dropTarget=0;fillColor=none;points=[[0,0.5],[1,0.5]];portConstraint=eastwest;" vertex="1" parent="J3YQ_y_66WrA-NiRAN0j-22">
          <mxGeometry y="193" width="620" height="64" as="geometry" />
        </mxCell>
        <mxCell id="J3YQ_y_66WrA-NiRAN0j-33" value="&lt;span style=&quot;font-size: 22px;&quot;&gt;ARQUITECTURA&lt;/span&gt;" style="shape=partialRectangle;html=1;whiteSpace=wrap;connectable=0;strokeColor=inherit;overflow=hidden;fillColor=none;top=0;left=0;bottom=0;right=0;pointerEvents=1;" vertex="1" parent="J3YQ_y_66WrA-NiRAN0j-32">
          <mxGeometry width="287" height="64" as="geometry">
            <mxRectangle width="287" height="64" as="alternateBounds" />
          </mxGeometry>
        </mxCell>
        <mxCell id="J3YQ_y_66WrA-NiRAN0j-34" value="&lt;div style=&quot;font-size: 21px;&quot;&gt;&lt;span style=&quot;background-color: initial; font-size: 21px;&quot;&gt;Documento detallado de arquitectura&lt;/span&gt;&lt;br style=&quot;font-size: 21px;&quot;&gt;&lt;/div&gt;&lt;div style=&quot;font-size: 21px;&quot;&gt;&lt;span style=&quot;background-color: initial; font-size: 21px;&quot;&gt;&lt;br style=&quot;font-size: 21px;&quot;&gt;&lt;/span&gt;&lt;/div&gt;" style="shape=partialRectangle;html=1;whiteSpace=wrap;connectable=0;strokeColor=inherit;overflow=hidden;fillColor=none;top=0;left=0;bottom=0;right=0;pointerEvents=1;fontSize=21;align=center;verticalAlign=middle;" vertex="1" parent="J3YQ_y_66WrA-NiRAN0j-32">
          <mxGeometry x="287" width="333" height="64" as="geometry">
            <mxRectangle width="333" height="64" as="alternateBounds" />
          </mxGeometry>
        </mxCell>
        <mxCell id="J3YQ_y_66WrA-NiRAN0j-35" value="" style="shape=tableRow;horizontal=0;startSize=0;swimlaneHead=0;swimlaneBody=0;strokeColor=inherit;top=0;left=0;bottom=0;right=0;collapsible=0;dropTarget=0;fillColor=none;points=[[0,0.5],[1,0.5]];portConstraint=eastwest;" vertex="1" parent="J3YQ_y_66WrA-NiRAN0j-22">
          <mxGeometry y="257" width="620" height="65" as="geometry" />
        </mxCell>
        <mxCell id="J3YQ_y_66WrA-NiRAN0j-36" value="&lt;span style=&quot;font-size: 22px;&quot;&gt;REQUERIMIENTOS&lt;/span&gt;" style="shape=partialRectangle;html=1;whiteSpace=wrap;connectable=0;strokeColor=inherit;overflow=hidden;fillColor=none;top=0;left=0;bottom=0;right=0;pointerEvents=1;" vertex="1" parent="J3YQ_y_66WrA-NiRAN0j-35">
          <mxGeometry width="287" height="65" as="geometry">
            <mxRectangle width="287" height="65" as="alternateBounds" />
          </mxGeometry>
        </mxCell>
        <mxCell id="J3YQ_y_66WrA-NiRAN0j-37" value="&lt;div style=&quot;font-size: 21px;&quot;&gt;&lt;span style=&quot;background-color: initial; font-size: 21px;&quot;&gt;Lista detallada de requerimientos funcionales y no funcionales&lt;/span&gt;&lt;br style=&quot;font-size: 21px;&quot;&gt;&lt;/div&gt;&lt;div style=&quot;font-size: 21px;&quot;&gt;&lt;span style=&quot;background-color: initial; font-size: 21px;&quot;&gt;&lt;br style=&quot;font-size: 21px;&quot;&gt;&lt;/span&gt;&lt;/div&gt;" style="shape=partialRectangle;html=1;whiteSpace=wrap;connectable=0;strokeColor=inherit;overflow=hidden;fillColor=none;top=0;left=0;bottom=0;right=0;pointerEvents=1;fontSize=21;align=center;verticalAlign=middle;" vertex="1" parent="J3YQ_y_66WrA-NiRAN0j-35">
          <mxGeometry x="287" width="333" height="65" as="geometry">
            <mxRectangle width="333" height="65" as="alternateBounds" />
          </mxGeometry>
        </mxCell>
        <mxCell id="J3YQ_y_66WrA-NiRAN0j-38" value="" style="shape=tableRow;horizontal=0;startSize=0;swimlaneHead=0;swimlaneBody=0;strokeColor=inherit;top=0;left=0;bottom=0;right=0;collapsible=0;dropTarget=0;fillColor=none;points=[[0,0.5],[1,0.5]];portConstraint=eastwest;" vertex="1" parent="J3YQ_y_66WrA-NiRAN0j-22">
          <mxGeometry y="322" width="620" height="63" as="geometry" />
        </mxCell>
        <mxCell id="J3YQ_y_66WrA-NiRAN0j-39" value="&lt;span style=&quot;font-size: 22px;&quot;&gt;PLAN DE PRUEBA:&lt;/span&gt;" style="shape=partialRectangle;html=1;whiteSpace=wrap;connectable=0;strokeColor=inherit;overflow=hidden;fillColor=none;top=0;left=0;bottom=0;right=0;pointerEvents=1;" vertex="1" parent="J3YQ_y_66WrA-NiRAN0j-38">
          <mxGeometry width="287" height="63" as="geometry">
            <mxRectangle width="287" height="63" as="alternateBounds" />
          </mxGeometry>
        </mxCell>
        <mxCell id="J3YQ_y_66WrA-NiRAN0j-40" value="&lt;div style=&quot;font-size: 21px;&quot;&gt;&lt;span style=&quot;background-color: initial; font-size: 21px;&quot;&gt;Plan detallado de como se ejecutaran las pruebas&lt;/span&gt;&lt;br style=&quot;font-size: 21px;&quot;&gt;&lt;/div&gt;&lt;div style=&quot;font-size: 21px;&quot;&gt;&lt;span style=&quot;background-color: initial; font-size: 21px;&quot;&gt;&lt;br style=&quot;font-size: 21px;&quot;&gt;&lt;/span&gt;&lt;/div&gt;" style="shape=partialRectangle;html=1;whiteSpace=wrap;connectable=0;strokeColor=inherit;overflow=hidden;fillColor=none;top=0;left=0;bottom=0;right=0;pointerEvents=1;fontSize=21;align=center;verticalAlign=middle;" vertex="1" parent="J3YQ_y_66WrA-NiRAN0j-38">
          <mxGeometry x="287" width="333" height="63" as="geometry">
            <mxRectangle width="333" height="63" as="alternateBounds" />
          </mxGeometry>
        </mxCell>
        <mxCell id="J3YQ_y_66WrA-NiRAN0j-41" value="" style="shape=tableRow;horizontal=0;startSize=0;swimlaneHead=0;swimlaneBody=0;strokeColor=inherit;top=0;left=0;bottom=0;right=0;collapsible=0;dropTarget=0;fillColor=none;points=[[0,0.5],[1,0.5]];portConstraint=eastwest;" vertex="1" parent="J3YQ_y_66WrA-NiRAN0j-22">
          <mxGeometry y="385" width="620" height="135" as="geometry" />
        </mxCell>
        <mxCell id="J3YQ_y_66WrA-NiRAN0j-42" value="&lt;span style=&quot;font-size: 22px;&quot;&gt;EJECUCION PLAN DE PRUEBA&lt;/span&gt;" style="shape=partialRectangle;html=1;whiteSpace=wrap;connectable=0;strokeColor=inherit;overflow=hidden;fillColor=none;top=0;left=0;bottom=0;right=0;pointerEvents=1;" vertex="1" parent="J3YQ_y_66WrA-NiRAN0j-41">
          <mxGeometry width="287" height="135" as="geometry">
            <mxRectangle width="287" height="135" as="alternateBounds" />
          </mxGeometry>
        </mxCell>
        <mxCell id="J3YQ_y_66WrA-NiRAN0j-43" value="&lt;div style=&quot;font-size: 21px;&quot;&gt;&lt;span style=&quot;background-color: initial;&quot;&gt;Lista detallada en la que se documentara el resultado de las pruebas&lt;/span&gt;&lt;br&gt;&lt;/div&gt;" style="shape=partialRectangle;html=1;whiteSpace=wrap;connectable=0;strokeColor=inherit;overflow=hidden;fillColor=none;top=0;left=0;bottom=0;right=0;pointerEvents=1;fontSize=21;align=center;verticalAlign=middle;" vertex="1" parent="J3YQ_y_66WrA-NiRAN0j-41">
          <mxGeometry x="287" width="333" height="135" as="geometry">
            <mxRectangle width="333" height="135" as="alternateBounds" />
          </mxGeometry>
        </mxCell>
        <mxCell id="J3YQ_y_66WrA-NiRAN0j-77" value="" style="shape=table;startSize=0;container=1;collapsible=0;childLayout=tableLayout;" vertex="1" parent="1">
          <mxGeometry x="390" y="530" width="440" height="190" as="geometry" />
        </mxCell>
        <mxCell id="J3YQ_y_66WrA-NiRAN0j-78" value="" style="shape=tableRow;horizontal=0;startSize=0;swimlaneHead=0;swimlaneBody=0;strokeColor=inherit;top=0;left=0;bottom=0;right=0;collapsible=0;dropTarget=0;fillColor=none;points=[[0,0.5],[1,0.5]];portConstraint=eastwest;" vertex="1" parent="J3YQ_y_66WrA-NiRAN0j-77">
          <mxGeometry width="440" height="40" as="geometry" />
        </mxCell>
        <mxCell id="J3YQ_y_66WrA-NiRAN0j-79" value="NOMBRE" style="shape=partialRectangle;html=1;whiteSpace=wrap;connectable=0;strokeColor=inherit;overflow=hidden;fillColor=none;top=0;left=0;bottom=0;right=0;pointerEvents=1;" vertex="1" parent="J3YQ_y_66WrA-NiRAN0j-78">
          <mxGeometry width="140" height="40" as="geometry">
            <mxRectangle width="140" height="40" as="alternateBounds" />
          </mxGeometry>
        </mxCell>
        <mxCell id="J3YQ_y_66WrA-NiRAN0j-80" value="REQUERIMIENTOS" style="shape=partialRectangle;html=1;whiteSpace=wrap;connectable=0;strokeColor=inherit;overflow=hidden;fillColor=none;top=0;left=0;bottom=0;right=0;pointerEvents=1;" vertex="1" parent="J3YQ_y_66WrA-NiRAN0j-78">
          <mxGeometry x="140" width="300" height="40" as="geometry">
            <mxRectangle width="300" height="40" as="alternateBounds" />
          </mxGeometry>
        </mxCell>
        <mxCell id="J3YQ_y_66WrA-NiRAN0j-81" value="" style="shape=tableRow;horizontal=0;startSize=0;swimlaneHead=0;swimlaneBody=0;strokeColor=inherit;top=0;left=0;bottom=0;right=0;collapsible=0;dropTarget=0;fillColor=none;points=[[0,0.5],[1,0.5]];portConstraint=eastwest;" vertex="1" parent="J3YQ_y_66WrA-NiRAN0j-77">
          <mxGeometry y="40" width="440" height="70" as="geometry" />
        </mxCell>
        <mxCell id="J3YQ_y_66WrA-NiRAN0j-82" value="DESCRIPCION" style="shape=partialRectangle;html=1;whiteSpace=wrap;connectable=0;strokeColor=inherit;overflow=hidden;fillColor=none;top=0;left=0;bottom=0;right=0;pointerEvents=1;" vertex="1" parent="J3YQ_y_66WrA-NiRAN0j-81">
          <mxGeometry width="140" height="70" as="geometry">
            <mxRectangle width="140" height="70" as="alternateBounds" />
          </mxGeometry>
        </mxCell>
        <mxCell id="J3YQ_y_66WrA-NiRAN0j-83" value="Se detalla en una lista los requerimientos funcionales y no funcionales, cada uno con su respectivo identificador y una breve descripcion" style="shape=partialRectangle;html=1;whiteSpace=wrap;connectable=0;strokeColor=inherit;overflow=hidden;fillColor=none;top=0;left=0;bottom=0;right=0;pointerEvents=1;" vertex="1" parent="J3YQ_y_66WrA-NiRAN0j-81">
          <mxGeometry x="140" width="300" height="70" as="geometry">
            <mxRectangle width="300" height="70" as="alternateBounds" />
          </mxGeometry>
        </mxCell>
        <mxCell id="J3YQ_y_66WrA-NiRAN0j-84" value="" style="shape=tableRow;horizontal=0;startSize=0;swimlaneHead=0;swimlaneBody=0;strokeColor=inherit;top=0;left=0;bottom=0;right=0;collapsible=0;dropTarget=0;fillColor=none;points=[[0,0.5],[1,0.5]];portConstraint=eastwest;" vertex="1" parent="J3YQ_y_66WrA-NiRAN0j-77">
          <mxGeometry y="110" width="440" height="40" as="geometry" />
        </mxCell>
        <mxCell id="J3YQ_y_66WrA-NiRAN0j-85" value="CRITERIO DE ACEPTACION" style="shape=partialRectangle;html=1;whiteSpace=wrap;connectable=0;strokeColor=inherit;overflow=hidden;fillColor=none;top=0;left=0;bottom=0;right=0;pointerEvents=1;" vertex="1" parent="J3YQ_y_66WrA-NiRAN0j-84">
          <mxGeometry width="140" height="40" as="geometry">
            <mxRectangle width="140" height="40" as="alternateBounds" />
          </mxGeometry>
        </mxCell>
        <mxCell id="J3YQ_y_66WrA-NiRAN0j-86" value="Se deben listar como minimo 5 RF y 5 RNF" style="shape=partialRectangle;html=1;whiteSpace=wrap;connectable=0;strokeColor=inherit;overflow=hidden;fillColor=none;top=0;left=0;bottom=0;right=0;pointerEvents=1;" vertex="1" parent="J3YQ_y_66WrA-NiRAN0j-84">
          <mxGeometry x="140" width="300" height="40" as="geometry">
            <mxRectangle width="300" height="40" as="alternateBounds" />
          </mxGeometry>
        </mxCell>
        <mxCell id="J3YQ_y_66WrA-NiRAN0j-87" value="" style="shape=tableRow;horizontal=0;startSize=0;swimlaneHead=0;swimlaneBody=0;strokeColor=inherit;top=0;left=0;bottom=0;right=0;collapsible=0;dropTarget=0;fillColor=none;points=[[0,0.5],[1,0.5]];portConstraint=eastwest;" vertex="1" parent="J3YQ_y_66WrA-NiRAN0j-77">
          <mxGeometry y="150" width="440" height="40" as="geometry" />
        </mxCell>
        <mxCell id="J3YQ_y_66WrA-NiRAN0j-88" value="ENTREGABLES" style="shape=partialRectangle;html=1;whiteSpace=wrap;connectable=0;strokeColor=inherit;overflow=hidden;fillColor=none;top=0;left=0;bottom=0;right=0;pointerEvents=1;" vertex="1" parent="J3YQ_y_66WrA-NiRAN0j-87">
          <mxGeometry width="140" height="40" as="geometry">
            <mxRectangle width="140" height="40" as="alternateBounds" />
          </mxGeometry>
        </mxCell>
        <mxCell id="J3YQ_y_66WrA-NiRAN0j-89" value="&lt;div style=&quot;&quot;&gt;&lt;font style=&quot;font-size: 12px;&quot;&gt;&lt;span style=&quot;background-color: initial;&quot;&gt;Lista detallada de requerimientos funcionales y no funcionales&lt;/span&gt;&lt;br&gt;&lt;/font&gt;&lt;/div&gt;&lt;div style=&quot;&quot;&gt;&lt;span style=&quot;background-color: initial;&quot;&gt;&lt;br&gt;&lt;/span&gt;&lt;/div&gt;" style="shape=partialRectangle;html=1;whiteSpace=wrap;connectable=0;strokeColor=inherit;overflow=hidden;fillColor=none;top=0;left=0;bottom=0;right=0;pointerEvents=1;" vertex="1" parent="J3YQ_y_66WrA-NiRAN0j-87">
          <mxGeometry x="140" width="300" height="40" as="geometry">
            <mxRectangle width="300" height="40" as="alternateBounds" />
          </mxGeometry>
        </mxCell>
        <mxCell id="J3YQ_y_66WrA-NiRAN0j-98" value="" style="shape=table;startSize=0;container=1;collapsible=0;childLayout=tableLayout;" vertex="1" parent="1">
          <mxGeometry x="390" y="450" width="440" height="80" as="geometry" />
        </mxCell>
        <mxCell id="J3YQ_y_66WrA-NiRAN0j-99" value="" style="shape=tableRow;horizontal=0;startSize=0;swimlaneHead=0;swimlaneBody=0;strokeColor=inherit;top=0;left=0;bottom=0;right=0;collapsible=0;dropTarget=0;fillColor=none;points=[[0,0.5],[1,0.5]];portConstraint=eastwest;" vertex="1" parent="J3YQ_y_66WrA-NiRAN0j-98">
          <mxGeometry width="440" height="40" as="geometry" />
        </mxCell>
        <mxCell id="J3YQ_y_66WrA-NiRAN0j-100" value="ID" style="shape=partialRectangle;html=1;whiteSpace=wrap;connectable=0;strokeColor=inherit;overflow=hidden;fillColor=none;top=0;left=0;bottom=0;right=0;pointerEvents=1;" vertex="1" parent="J3YQ_y_66WrA-NiRAN0j-99">
          <mxGeometry width="140" height="40" as="geometry">
            <mxRectangle width="140" height="40" as="alternateBounds" />
          </mxGeometry>
        </mxCell>
        <mxCell id="J3YQ_y_66WrA-NiRAN0j-101" value="ULTIMA ACTUALIZACION" style="shape=partialRectangle;html=1;whiteSpace=wrap;connectable=0;strokeColor=inherit;overflow=hidden;fillColor=none;top=0;left=0;bottom=0;right=0;pointerEvents=1;" vertex="1" parent="J3YQ_y_66WrA-NiRAN0j-99">
          <mxGeometry x="140" width="180" height="40" as="geometry">
            <mxRectangle width="180" height="40" as="alternateBounds" />
          </mxGeometry>
        </mxCell>
        <mxCell id="J3YQ_y_66WrA-NiRAN0j-102" value="RESPONSABLE" style="shape=partialRectangle;html=1;whiteSpace=wrap;connectable=0;strokeColor=inherit;overflow=hidden;fillColor=none;top=0;left=0;bottom=0;right=0;pointerEvents=1;" vertex="1" parent="J3YQ_y_66WrA-NiRAN0j-99">
          <mxGeometry x="320" width="120" height="40" as="geometry">
            <mxRectangle width="120" height="40" as="alternateBounds" />
          </mxGeometry>
        </mxCell>
        <mxCell id="J3YQ_y_66WrA-NiRAN0j-103" value="" style="shape=tableRow;horizontal=0;startSize=0;swimlaneHead=0;swimlaneBody=0;strokeColor=inherit;top=0;left=0;bottom=0;right=0;collapsible=0;dropTarget=0;fillColor=none;points=[[0,0.5],[1,0.5]];portConstraint=eastwest;" vertex="1" parent="J3YQ_y_66WrA-NiRAN0j-98">
          <mxGeometry y="40" width="440" height="40" as="geometry" />
        </mxCell>
        <mxCell id="J3YQ_y_66WrA-NiRAN0j-104" value="1" style="shape=partialRectangle;html=1;whiteSpace=wrap;connectable=0;strokeColor=inherit;overflow=hidden;fillColor=none;top=0;left=0;bottom=0;right=0;pointerEvents=1;" vertex="1" parent="J3YQ_y_66WrA-NiRAN0j-103">
          <mxGeometry width="140" height="40" as="geometry">
            <mxRectangle width="140" height="40" as="alternateBounds" />
          </mxGeometry>
        </mxCell>
        <mxCell id="J3YQ_y_66WrA-NiRAN0j-105" value="7/4/2023" style="shape=partialRectangle;html=1;whiteSpace=wrap;connectable=0;strokeColor=inherit;overflow=hidden;fillColor=none;top=0;left=0;bottom=0;right=0;pointerEvents=1;" vertex="1" parent="J3YQ_y_66WrA-NiRAN0j-103">
          <mxGeometry x="140" width="180" height="40" as="geometry">
            <mxRectangle width="180" height="40" as="alternateBounds" />
          </mxGeometry>
        </mxCell>
        <mxCell id="J3YQ_y_66WrA-NiRAN0j-106" value="Lider tecnico" style="shape=partialRectangle;html=1;whiteSpace=wrap;connectable=0;strokeColor=inherit;overflow=hidden;fillColor=none;top=0;left=0;bottom=0;right=0;pointerEvents=1;" vertex="1" parent="J3YQ_y_66WrA-NiRAN0j-103">
          <mxGeometry x="320" width="120" height="40" as="geometry">
            <mxRectangle width="120" height="40" as="alternateBounds" />
          </mxGeometry>
        </mxCell>
      </root>
    </mxGraphModel>
  </diagram>
</mxfile>
